<?xml version="1.0" encoding="UTF-8"?>
<svg id="Layer_1" data-name="Layer 1" xmlns="http://www.w3.org/2000/svg" xmlns:xlink="http://www.w3.org/1999/xlink" viewBox="0 0 1920 3413.35">
  <defs>
    <style>
      .cls-1 {
        letter-spacing: .02em;
      }

      .cls-2 {
        fill: #753324;
      }

      .cls-3 {
        letter-spacing: -.06em;
      }

      .cls-4 {
        letter-spacing: -.05em;
      }

      .cls-5 {
        font-size: 10px;
        letter-spacing: .26em;
      }

      .cls-5, .cls-6, .cls-7, .cls-8, .cls-9, .cls-10 {
        font-family: Figtree-Regular, Figtree;
        font-variation-settings: 'wght' 400;
      }

      .cls-5, .cls-6, .cls-11, .cls-12, .cls-13, .cls-14 {
        fill: #f3f4f6;
      }

      .cls-15 {
        font-size: 90px;
      }

      .cls-15, .cls-16 {
        fill: #ccc;
        font-family: DrSugiyama-Regular, 'Dr Sugiyama';
      }

      .cls-16 {
        font-size: 32px;
      }

      .cls-17 {
        letter-spacing: -.04em;
      }

      .cls-18 {
        letter-spacing: 0em;
      }

      .cls-19 {
        letter-spacing: -.01em;
      }

      .cls-6 {
        font-size: 24px;
      }

      .cls-20 {
        letter-spacing: 0em;
      }

      .cls-7 {
        font-size: 30px;
      }

      .cls-7, .cls-8, .cls-21, .cls-22, .cls-23 {
        fill: #020202;
      }

      .cls-8 {
        font-size: 18px;
      }

      .cls-24 {
        letter-spacing: .07em;
      }

      .cls-25 {
        letter-spacing: -.06em;
      }

      .cls-21 {
        font-size: 110px;
      }

      .cls-21, .cls-23, .cls-13, .cls-26 {
        font-family: Figtree-Bold, Figtree;
        font-variation-settings: 'wght' 700;
        font-weight: 700;
      }

      .cls-27 {
        letter-spacing: -.06em;
      }

      .cls-28 {
        letter-spacing: 0em;
      }

      .cls-29 {
        letter-spacing: .03em;
      }

      .cls-30 {
        letter-spacing: 0em;
      }

      .cls-31, .cls-32, .cls-33 {
        fill: none;
      }

      .cls-34 {
        fill: #507af3;
      }

      .cls-35 {
        letter-spacing: .04em;
      }

      .cls-36 {
        letter-spacing: .02em;
      }

      .cls-37 {
        letter-spacing: .03em;
      }

      .cls-38 {
        letter-spacing: 0em;
      }

      .cls-22, .cls-12 {
        font-family: Figtree-Black, Figtree;
        font-variation-settings: 'wght' 900;
        font-weight: 800;
      }

      .cls-22, .cls-13, .cls-9 {
        font-size: 20px;
      }

      .cls-39 {
        letter-spacing: 0em;
      }

      .cls-40 {
        letter-spacing: 0em;
      }

      .cls-23, .cls-26 {
        font-size: 40px;
      }

      .cls-41 {
        letter-spacing: -.03em;
      }

      .cls-12 {
        font-size: 368.67px;
      }

      .cls-42 {
        letter-spacing: -.04em;
      }

      .cls-9, .cls-10 {
        fill: gray;
      }

      .cls-43 {
        letter-spacing: -.11em;
      }

      .cls-44 {
        letter-spacing: 0em;
      }

      .cls-32 {
        stroke: #3a84b4;
        stroke-width: .25px;
      }

      .cls-32, .cls-33 {
        stroke-miterlimit: 10;
      }

      .cls-45 {
        letter-spacing: .06em;
      }

      .cls-46 {
        letter-spacing: -.04em;
      }

      .cls-47 {
        filter: url(#drop-shadow-3);
      }

      .cls-48 {
        letter-spacing: 0em;
      }

      .cls-49 {
        fill: #f7931e;
      }

      .cls-50 {
        letter-spacing: -.01em;
      }

      .cls-51 {
        fill: #ed1c24;
      }

      .cls-10 {
        font-size: 16px;
      }

      .cls-52 {
        fill: #00a99d;
      }

      .cls-53 {
        letter-spacing: 0em;
      }

      .cls-54 {
        letter-spacing: 0em;
      }

      .cls-33 {
        filter: url(#drop-shadow-1);
        stroke: #e6e6e6;
        stroke-width: .75px;
      }

      .cls-55 {
        fill: lime;
      }

      .cls-14 {
        filter: url(#drop-shadow-2);
      }

      .cls-56 {
        clip-path: url(#clippath);
      }

      .cls-57 {
        letter-spacing: -.06em;
      }

      .cls-58 {
        letter-spacing: 0em;
      }

      .cls-59 {
        fill: #e6e6e6;
      }

      .cls-60 {
        letter-spacing: .07em;
      }
    </style>
    <filter id="drop-shadow-1" x="0" y="884" width="109" height="109" filterUnits="userSpaceOnUse">
      <feOffset dx="0" dy="0"/>
      <feGaussianBlur result="blur" stdDeviation="10"/>
      <feFlood flood-color="#000" flood-opacity=".06"/>
      <feComposite in2="blur" operator="in"/>
      <feComposite in="SourceGraphic"/>
    </filter>
    <filter id="drop-shadow-2" x="1" y="964" width="107" height="107" filterUnits="userSpaceOnUse">
      <feOffset dx="0" dy="0"/>
      <feGaussianBlur result="blur-2" stdDeviation="10"/>
      <feFlood flood-color="#000" flood-opacity=".15"/>
      <feComposite in2="blur-2" operator="in"/>
      <feComposite in="SourceGraphic"/>
    </filter>
    <filter id="drop-shadow-3" x="1" y="885" width="107" height="107" filterUnits="userSpaceOnUse">
      <feOffset dx="0" dy="0"/>
      <feGaussianBlur result="blur-3" stdDeviation="10"/>
      <feFlood flood-color="#000" flood-opacity=".15"/>
      <feComposite in2="blur-3" operator="in"/>
      <feComposite in="SourceGraphic"/>
    </filter>
    <clipPath id="clippath">
      <rect class="cls-31" x="31.62" y="915.08" width="46.3" height="46.3" rx="16.05" ry="16.05"/>
    </clipPath>
  </defs>
  <rect class="cls-11" width="1920" height="3402.8"/>
  <rect class="cls-33" x="31.62" y="915.08" width="46.3" height="46.3" rx="16.05" ry="16.05"/>
  <text class="cls-21" transform="translate(464.17 183.41)"><tspan class="cls-42" x="0" y="0">KIDUS MINYELSH</tspan><tspan class="cls-25" x="846.22" y="0">O</tspan><tspan class="cls-43" x="926.19" y="0">W</tspan><tspan class="cls-46" x="1022.66" y="0">A</tspan></text>
  <text class="cls-26" transform="translate(566.79 1061.55)"><tspan x="0" y="0">FE</tspan><tspan class="cls-4" x="45.72" y="0">A</tspan><tspan class="cls-39" x="72.36" y="0">TURED WORK</tspan></text>
  <text class="cls-16" transform="translate(1086.48 1055.43)"><tspan x="0" y="0">S</tspan><tspan class="cls-36" x="20.74" y="0">e</tspan><tspan x="29.22" y="0" xml:space="preserve">lection of  </tspan><tspan class="cls-24" x="130.43" y="0">r</tspan><tspan x="139.45" y="0">ecent p</tspan><tspan class="cls-37" x="202.91" y="0">r</tspan><tspan x="210.78" y="0">ojects</tspan></text>
  <text class="cls-15" transform="translate(476.58 813.44)"><tspan x="0" y="0">A d</tspan><tspan class="cls-44" x="128.25" y="0">e</tspan><tspan x="149.04" y="0">sign</tspan><tspan class="cls-35" x="267.74" y="0">e</tspan><tspan x="292.76" y="0">r </tspan><tspan class="cls-1" x="333.26" y="0">w</tspan><tspan x="375.65" y="0">o</tspan><tspan class="cls-45" x="400.85" y="0">r</tspan><tspan x="425.51" y="0">king on visual systems, </tspan><tspan x="93.46" y="100">identity, and st</tspan><tspan class="cls-29" x="531.48" y="100">r</tspan><tspan x="553.26" y="100">uctu</tspan><tspan class="cls-60" x="679.35" y="100">r</tspan><tspan x="704.73" y="100">ed d</tspan><tspan class="cls-44" x="824.33" y="100">e</tspan><tspan x="845.12" y="100">sign.</tspan></text>
  <g>
    <text class="cls-8" transform="translate(50.67 252.13) rotate(-90)"><tspan class="cls-48" x="0" y="0">A</tspan><tspan class="cls-58" x="12.06" y="0">ddis Ababa, Ethiopia</tspan></text>
    <text class="cls-10" transform="translate(70.65 252.13) rotate(-90)"><tspan x="0" y="0">kidusmi</tspan><tspan class="cls-40" x="54.56" y="0">n</tspan><tspan class="cls-50" x="63.36" y="0">y</tspan><tspan class="cls-53" x="71.58" y="0">el@gmail.com</tspan></text>
  </g>
  <line class="cls-32" x1="109.53" x2="109.53" y2="3406.73"/>
  <g>
    <rect class="cls-14" x="31.62" y="994.56" width="46.3" height="46.3" rx="16.05" ry="16.05"/>
    <path class="cls-59" d="M61.87,994.56c8.86,0,16.05,7.18,16.05,16.05v14.21c0,8.86-7.18,16.05-16.05,16.05h-14.21c-8.86,0-16.05-7.18-16.05-16.05v-14.21c0-8.86,7.18-16.05,16.05-16.05h14.21M61.87,993.81h-14.21c-9.26,0-16.8,7.54-16.8,16.8v14.21c0,9.26,7.54,16.8,16.8,16.8h14.21c9.26,0,16.8-7.54,16.8-16.8v-14.21c0-9.26-7.54-16.8-16.8-16.8h0Z"/>
    <path d="M60.2,1022.74c.36-.29.69-.43.98-.43.51,0,.76.33.76.98,0,.91-1.12,2.26-3.37,4.05-2.25,1.79-4.19,2.69-5.82,2.69s-2.9-.58-3.81-1.74c-.91-1.16-1.36-2.65-1.36-4.49s.31-3.6.92-5.3c.62-1.7,1.23-2.56,1.85-2.56.29.04.43.48.43,1.33s.13,1.79.38,2.8c.25,1.02.81,1.98,1.66,2.91.85.92,1.96,1.39,3.32,1.39s2.71-.54,4.05-1.63ZM48.92,1010.89c-.56-.62-.84-1.38-.84-2.28s.28-1.67.84-2.28c.56-.62,1.26-.92,2.09-.92s1.53.31,2.09.92c.56.62.84,1.38.84,2.28s-.28,1.67-.84,2.28c-.56.62-1.26.92-2.09.92s-1.53-.31-2.09-.92Z"/>
  </g>
  <g class="cls-47">
    <g class="cls-56">
      <image width="1536" height="1536" transform="translate(31.62 915.08) scale(.03)" xlink:href="C:\Users\Lenovo T14s\Downloads\KTM.jpg"/>
    </g>
  </g>
  <line class="cls-32" x1="1053.87" y1="1048.95" x2="922.8" y2="1048.95"/>
  <line class="cls-32" x1="1841.51" y1="1900.69" x2="189.53" y2="1900.69"/>
  <line class="cls-32" x1="1841.51" y1="2030.94" x2="189.53" y2="2030.94"/>
  <line class="cls-32" x1="1841.51" y1="2161.18" x2="189.53" y2="2161.18"/>
  <line class="cls-32" x1="1841.51" y1="2291.42" x2="189.53" y2="2291.42"/>
  <line class="cls-32" x1="1841.51" y1="2421.66" x2="189.53" y2="2421.66"/>
  <text class="cls-23" transform="translate(890.79 1803.98)"><tspan x="0" y="0">MORE WORK</tspan></text>
  <text class="cls-7" transform="translate(269.53 1975.26)"><tspan x="0" y="0">PROJECT ONE</tspan></text>
  <text class="cls-9" transform="translate(1094.26 1965.46)"><tspan class="cls-30" x="0" y="0">P</tspan><tspan x="11.5" y="0">roject OneLorem ipsum dolor sit amet, consec</tspan><tspan class="cls-20" x="424.89" y="0">t</tspan><tspan x="432.39" y="0">etuer adipiscing elit, sed </tspan><tspan x="0" y="24">diam nonum</tspan><tspan class="cls-38" x="110.62" y="24">m</tspan><tspan x="127.48" y="24">y nibh euismod tincidunt ut laoreet dolore </tspan></text>
  <text class="cls-9" transform="translate(1094.26 2095.71)"><tspan class="cls-30" x="0" y="0">P</tspan><tspan x="11.5" y="0">roject OneLorem ipsum dolor sit amet, consec</tspan><tspan class="cls-20" x="424.89" y="0">t</tspan><tspan x="432.39" y="0">etuer adipiscing elit, sed </tspan><tspan x="0" y="24">diam nonum</tspan><tspan class="cls-38" x="110.62" y="24">m</tspan><tspan x="127.48" y="24">y nibh euismod tincidunt ut laoreet dolore </tspan></text>
  <text class="cls-9" transform="translate(1094.26 2225.95)"><tspan class="cls-30" x="0" y="0">P</tspan><tspan x="11.5" y="0">roject OneLorem ipsum dolor sit amet, consec</tspan><tspan class="cls-20" x="424.89" y="0">t</tspan><tspan x="432.39" y="0">etuer adipiscing elit, sed </tspan><tspan x="0" y="24">diam nonum</tspan><tspan class="cls-38" x="110.62" y="24">m</tspan><tspan x="127.48" y="24">y nibh euismod tincidunt ut laoreet dolore </tspan></text>
  <text class="cls-9" transform="translate(1094.26 2356.19)"><tspan class="cls-30" x="0" y="0">P</tspan><tspan x="11.5" y="0">roject OneLorem ipsum dolor sit amet, consec</tspan><tspan class="cls-20" x="424.89" y="0">t</tspan><tspan x="432.39" y="0">etuer adipiscing elit, sed </tspan><tspan x="0" y="24">diam nonum</tspan><tspan class="cls-38" x="110.62" y="24">m</tspan><tspan x="127.48" y="24">y nibh euismod tincidunt ut laoreet dolore</tspan></text>
  <text class="cls-7" transform="translate(269.53 2105.51)"><tspan x="0" y="0">PROJECT TWO</tspan></text>
  <text class="cls-7" transform="translate(269.53 2235.75)"><tspan x="0" y="0">PROJECT THREE</tspan></text>
  <text class="cls-7" transform="translate(269.53 2365.99)"><tspan x="0" y="0">PROJECT FOUR</tspan></text>
  <g>
    <path class="cls-49" d="M563.38,1548.98c0-4.81,3.9-8.7,8.7-8.7,0,0,0,0,0,0v-17.41s0,0,0,0c-4.81,0-8.7-3.9-8.7-8.7s3.9-8.7,8.7-8.7c0,0,0,0,0,0v-17.41h0c-4.81,0-8.7-3.9-8.7-8.7s3.9-8.7,8.7-8.7h0v-17.41h0c-4.81,0-8.7-3.9-8.7-8.7s3.9-8.7,8.7-8.7h0v-17.41h0c-4.81,0-8.7-3.9-8.7-8.7s3.9-8.7,8.7-8.7h0v-17.41h0c-4.81,0-8.7-3.9-8.7-8.7s3.9-8.7,8.7-8.7h0v-17.41h0c-4.81,0-8.7-3.9-8.7-8.7s3.9-8.7,8.7-8.7h0v-17.41h0c-4.81,0-8.7-3.9-8.7-8.7s3.9-8.7,8.7-8.7h0v-17.41h0c-4.81,0-8.7-3.9-8.7-8.7s3.9-8.7,8.7-8.7h0v-17.41s0,0,0,0h0c-3.73,0-7.14-2.33-8.26-5.89-1.89-6,2.54-11.52,8.26-11.52h0v-17.41s0,0,0,0h0c-3.73,0-7.14-2.33-8.26-5.89-1.89-6,2.54-11.52,8.26-11.52h0v-17.41s0,0,0,0h0c-3.73,0-7.14-2.33-8.26-5.89-1.89-6,2.54-11.52,8.26-11.52h0v-17.41s0,0,0,0h-25.91s0,0,0,0c0,4.81-3.9,8.7-8.7,8.7s-8.7-3.9-8.7-8.7c0,0,0,0,0,0h-17.41s0,0,0,0c0,4.81-3.9,8.7-8.7,8.7s-8.7-3.9-8.7-8.7c0,0,0,0,0,0h-17.41s0,0,0,0c0,4.81-3.9,8.7-8.7,8.7s-8.7-3.9-8.7-8.7c0,0,0,0,0,0h-17.41s0,0,0,0c0,4.81-3.9,8.7-8.7,8.7s-8.7-3.9-8.7-8.7c0,0,0,0,0,0h-17.41s0,0,0,0c0,4.81-3.9,8.7-8.7,8.7s-8.7-3.9-8.7-8.7c0,0,0,0,0,0h-17.41s0,0,0,0c0,4.81-3.9,8.7-8.7,8.7s-8.7-3.9-8.7-8.7c0,0,0,0,0,0h-17.41s0,0,0,0c0,4.81-3.9,8.7-8.7,8.7s-8.7-3.9-8.7-8.7c0,0,0,0,0,0h-17.41s0,0,0,0c0,4.81-3.9,8.7-8.7,8.7s-8.7-3.9-8.7-8.7c0,0,0,0,0,0h-17.41s0,0,0,0c0,4.81-3.9,8.7-8.7,8.7s-8.7-3.9-8.7-8.7c0,0,0,0,0,0h-17.41s0,0,0,0c0,4.81-3.9,8.7-8.7,8.7s-8.7-3.9-8.7-8.7c0,0,0,0,0,0h-25.91s0,0,0,0v17.41h0c4.81,0,8.7,3.9,8.7,8.7s-3.9,8.7-8.7,8.7h0v17.41h0c4.81,0,8.7,3.9,8.7,8.7s-3.9,8.7-8.7,8.7h0v17.41h0c4.81,0,8.7,3.9,8.7,8.7s-3.9,8.7-8.7,8.7h0v17.41h0c5.72,0,10.15,5.52,8.26,11.52-1.12,3.56-4.53,5.89-8.26,5.89h0s0,0,0,0v17.41s0,0,0,0h0c3.73,0,7.14,2.33,8.26,5.89,1.89,6-2.54,11.52-8.26,11.52h0v17.41s0,0,0,0h0c3.73,0,7.14,2.33,8.26,5.89,1.89,6-2.54,11.52-8.26,11.52h0v17.41s0,0,0,0h0c3.73,0,7.14,2.33,8.26,5.89,1.89,6-2.54,11.52-8.26,11.52h0v17.41s0,0,0,0h0c3.73,0,7.14,2.33,8.26,5.89,1.89,6-2.54,11.52-8.26,11.52h0v17.41s0,0,0,0h0c3.73,0,7.14,2.33,8.26,5.89,1.89,6-2.54,11.52-8.26,11.52h0v17.41s0,0,0,0h0c3.73,0,7.14,2.33,8.26,5.89,1.89,6-2.54,11.52-8.26,11.52h0v17.41s0,0,0,0h0c3.73,0,7.14,2.33,8.26,5.89,1.89,6-2.54,11.52-8.26,11.52h0v17.41s0,0,0,0h0c3.73,0,7.14,2.33,8.26,5.89,1.89,6-2.54,11.52-8.26,11.52h0v17.41s0,0,0,0h25.91s0,0,0,0c0-4.81,3.9-8.7,8.7-8.7s8.7,3.9,8.7,8.7c0,0,0,0,0,0h17.41s0,0,0,0c0-4.81,3.9-8.7,8.7-8.7s8.7,3.9,8.7,8.7c0,0,0,0,0,0h17.41s0,0,0,0c0-4.81,3.9-8.7,8.7-8.7s8.7,3.9,8.7,8.7c0,0,0,0,0,0h17.41s0,0,0,0c0-4.81,3.9-8.7,8.7-8.7s8.7,3.9,8.7,8.7c0,0,0,0,0,0h17.41s0,0,0,0c0-4.81,3.9-8.7,8.7-8.7s8.7,3.9,8.7,8.7c0,0,0,0,0,0h17.41s0,0,0,0c0-4.81,3.9-8.7,8.7-8.7s8.7,3.9,8.7,8.7c0,0,0,0,0,0h17.41s0,0,0,0c0-4.81,3.9-8.7,8.7-8.7s8.7,3.9,8.7,8.7c0,0,0,0,0,0h17.41s0,0,0,0c0-4.81,3.9-8.7,8.7-8.7s8.7,3.9,8.7,8.7c0,0,0,0,0,0h17.41s0,0,0,0c0-4.81,3.9-8.7,8.7-8.7s8.7,3.9,8.7,8.7c0,0,0,0,0,0h17.41s0,0,0,0c0-4.81,3.9-8.7,8.7-8.7s8.7,3.9,8.7,8.7c0,0,0,0,0,0h25.91s0,0,0,0v-17.41s0,0,0,0c-4.81,0-8.7-3.9-8.7-8.7Z"/>
    <rect class="cls-11" x="223.62" y="1165.82" width="314.37" height="322.55" rx="18" ry="18" transform="translate(1707.91 946.29) rotate(90)"/>
    <rect class="cls-11" x="325.01" y="1388.81" width="50.8" height="261.75" rx="18" ry="18" transform="translate(1870.09 1169.28) rotate(90)"/>
    <text class="cls-22" transform="translate(272.37 1525.99)"><tspan x="0" y="0">IGNITE CAPI</tspan><tspan class="cls-57" x="118.96" y="0">T</tspan><tspan x="130.04" y="0">AL</tspan></text>
    <rect class="cls-11" x="491.28" y="1494.29" width="50.8" height="50.8" rx="18" ry="18"/>
  </g>
  <g>
    <path class="cls-52" d="M1025.93,1548.98c0-4.81,3.9-8.7,8.7-8.7,0,0,0,0,0,0v-17.41s0,0,0,0c-4.81,0-8.7-3.9-8.7-8.7s3.9-8.7,8.7-8.7c0,0,0,0,0,0v-17.41h0c-4.81,0-8.7-3.9-8.7-8.7s3.9-8.7,8.7-8.7h0v-17.41h0c-4.81,0-8.7-3.9-8.7-8.7s3.9-8.7,8.7-8.7h0v-17.41h0c-4.81,0-8.7-3.9-8.7-8.7s3.9-8.7,8.7-8.7h0v-17.41h0c-4.81,0-8.7-3.9-8.7-8.7s3.9-8.7,8.7-8.7h0v-17.41h0c-4.81,0-8.7-3.9-8.7-8.7s3.9-8.7,8.7-8.7h0v-17.41h0c-4.81,0-8.7-3.9-8.7-8.7s3.9-8.7,8.7-8.7h0v-17.41h0c-4.81,0-8.7-3.9-8.7-8.7s3.9-8.7,8.7-8.7h0v-17.41s0,0,0,0h0c-3.73,0-7.14-2.33-8.26-5.89-1.89-6,2.54-11.52,8.26-11.52h0v-17.41s0,0,0,0h0c-3.73,0-7.14-2.33-8.26-5.89-1.89-6,2.54-11.52,8.26-11.52h0v-17.41s0,0,0,0h0c-3.73,0-7.14-2.33-8.26-5.89-1.89-6,2.54-11.52,8.26-11.52h0v-17.41s0,0,0,0h-25.91s0,0,0,0c0,4.81-3.9,8.7-8.7,8.7s-8.7-3.9-8.7-8.7c0,0,0,0,0,0h-17.41s0,0,0,0c0,4.81-3.9,8.7-8.7,8.7s-8.7-3.9-8.7-8.7c0,0,0,0,0,0h-17.41s0,0,0,0c0,4.81-3.9,8.7-8.7,8.7s-8.7-3.9-8.7-8.7c0,0,0,0,0,0h-17.41s0,0,0,0c0,4.81-3.9,8.7-8.7,8.7s-8.7-3.9-8.7-8.7c0,0,0,0,0,0h-17.41s0,0,0,0c0,4.81-3.9,8.7-8.7,8.7s-8.7-3.9-8.7-8.7c0,0,0,0,0,0h-17.41s0,0,0,0c0,4.81-3.9,8.7-8.7,8.7s-8.7-3.9-8.7-8.7c0,0,0,0,0,0h-17.41s0,0,0,0c0,4.81-3.9,8.7-8.7,8.7s-8.7-3.9-8.7-8.7c0,0,0,0,0,0h-17.41s0,0,0,0c0,4.81-3.9,8.7-8.7,8.7s-8.7-3.9-8.7-8.7c0,0,0,0,0,0h-17.41s0,0,0,0c0,4.81-3.9,8.7-8.7,8.7s-8.7-3.9-8.7-8.7c0,0,0,0,0,0h-17.41s0,0,0,0c0,4.81-3.9,8.7-8.7,8.7s-8.7-3.9-8.7-8.7c0,0,0,0,0,0h-25.91s0,0,0,0v17.41h0c4.81,0,8.7,3.9,8.7,8.7s-3.9,8.7-8.7,8.7h0v17.41h0c4.81,0,8.7,3.9,8.7,8.7s-3.9,8.7-8.7,8.7h0v17.41h0c4.81,0,8.7,3.9,8.7,8.7s-3.9,8.7-8.7,8.7h0v17.41h0c5.72,0,10.15,5.52,8.26,11.52-1.12,3.56-4.53,5.89-8.26,5.89h0s0,0,0,0v17.41s0,0,0,0h0c3.73,0,7.14,2.33,8.26,5.89,1.89,6-2.54,11.52-8.26,11.52h0v17.41s0,0,0,0h0c3.73,0,7.14,2.33,8.26,5.89,1.89,6-2.54,11.52-8.26,11.52h0v17.41s0,0,0,0h0c3.73,0,7.14,2.33,8.26,5.89,1.89,6-2.54,11.52-8.26,11.52h0v17.41s0,0,0,0h0c3.73,0,7.14,2.33,8.26,5.89,1.89,6-2.54,11.52-8.26,11.52h0v17.41s0,0,0,0h0c3.73,0,7.14,2.33,8.26,5.89,1.89,6-2.54,11.52-8.26,11.52h0v17.41s0,0,0,0h0c3.73,0,7.14,2.33,8.26,5.89,1.89,6-2.54,11.52-8.26,11.52h0v17.41s0,0,0,0h0c3.73,0,7.14,2.33,8.26,5.89,1.89,6-2.54,11.52-8.26,11.52h0v17.41s0,0,0,0h0c3.73,0,7.14,2.33,8.26,5.89,1.89,6-2.54,11.52-8.26,11.52h0v17.41s0,0,0,0h25.91s0,0,0,0c0-4.81,3.9-8.7,8.7-8.7s8.7,3.9,8.7,8.7c0,0,0,0,0,0h17.41s0,0,0,0c0-4.81,3.9-8.7,8.7-8.7s8.7,3.9,8.7,8.7c0,0,0,0,0,0h17.41s0,0,0,0c0-4.81,3.9-8.7,8.7-8.7s8.7,3.9,8.7,8.7c0,0,0,0,0,0h17.41s0,0,0,0c0-4.81,3.9-8.7,8.7-8.7s8.7,3.9,8.7,8.7c0,0,0,0,0,0h17.41s0,0,0,0c0-4.81,3.9-8.7,8.7-8.7s8.7,3.9,8.7,8.7c0,0,0,0,0,0h17.41s0,0,0,0c0-4.81,3.9-8.7,8.7-8.7s8.7,3.9,8.7,8.7c0,0,0,0,0,0h17.41s0,0,0,0c0-4.81,3.9-8.7,8.7-8.7s8.7,3.9,8.7,8.7c0,0,0,0,0,0h17.41s0,0,0,0c0-4.81,3.9-8.7,8.7-8.7s8.7,3.9,8.7,8.7c0,0,0,0,0,0h17.41s0,0,0,0c0-4.81,3.9-8.7,8.7-8.7s8.7,3.9,8.7,8.7c0,0,0,0,0,0h17.41s0,0,0,0c0-4.81,3.9-8.7,8.7-8.7s8.7,3.9,8.7,8.7c0,0,0,0,0,0h25.91s0,0,0,0v-17.41s0,0,0,0c-4.81,0-8.7-3.9-8.7-8.7Z"/>
    <rect class="cls-11" x="686.17" y="1165.82" width="314.37" height="322.55" rx="18" ry="18" transform="translate(2170.46 483.74) rotate(90)"/>
    <rect class="cls-11" x="787.56" y="1388.81" width="50.8" height="261.75" rx="18" ry="18" transform="translate(2332.65 706.73) rotate(90)"/>
    <text class="cls-22" transform="translate(793.95 1525.99)"><tspan x="0" y="0">EEC</tspan></text>
    <rect class="cls-11" x="953.83" y="1494.29" width="50.8" height="50.8" rx="18" ry="18"/>
  </g>
  <g>
    <path class="cls-2" d="M1488.48,1548.98c0-4.81,3.9-8.7,8.7-8.7,0,0,0,0,0,0v-17.41s0,0,0,0c-4.81,0-8.7-3.9-8.7-8.7s3.9-8.7,8.7-8.7c0,0,0,0,0,0v-17.41h0c-4.81,0-8.7-3.9-8.7-8.7s3.9-8.7,8.7-8.7h0v-17.41h0c-4.81,0-8.7-3.9-8.7-8.7s3.9-8.7,8.7-8.7h0v-17.41h0c-4.81,0-8.7-3.9-8.7-8.7s3.9-8.7,8.7-8.7h0v-17.41h0c-4.81,0-8.7-3.9-8.7-8.7s3.9-8.7,8.7-8.7h0v-17.41h0c-4.81,0-8.7-3.9-8.7-8.7s3.9-8.7,8.7-8.7h0v-17.41h0c-4.81,0-8.7-3.9-8.7-8.7s3.9-8.7,8.7-8.7h0v-17.41h0c-4.81,0-8.7-3.9-8.7-8.7s3.9-8.7,8.7-8.7h0v-17.41s0,0,0,0h0c-3.73,0-7.14-2.33-8.26-5.89-1.89-6,2.54-11.52,8.26-11.52h0v-17.41s0,0,0,0h0c-3.73,0-7.14-2.33-8.26-5.89-1.89-6,2.54-11.52,8.26-11.52h0v-17.41s0,0,0,0h0c-3.73,0-7.14-2.33-8.26-5.89-1.89-6,2.54-11.52,8.26-11.52h0v-17.41s0,0,0,0h-25.91s0,0,0,0c0,4.81-3.9,8.7-8.7,8.7s-8.7-3.9-8.7-8.7c0,0,0,0,0,0h-17.41s0,0,0,0c0,4.81-3.9,8.7-8.7,8.7s-8.7-3.9-8.7-8.7c0,0,0,0,0,0h-17.41s0,0,0,0c0,4.81-3.9,8.7-8.7,8.7s-8.7-3.9-8.7-8.7c0,0,0,0,0,0h-17.41s0,0,0,0c0,4.81-3.9,8.7-8.7,8.7s-8.7-3.9-8.7-8.7c0,0,0,0,0,0h-17.41s0,0,0,0c0,4.81-3.9,8.7-8.7,8.7s-8.7-3.9-8.7-8.7c0,0,0,0,0,0h-17.41s0,0,0,0c0,4.81-3.9,8.7-8.7,8.7s-8.7-3.9-8.7-8.7c0,0,0,0,0,0h-17.41s0,0,0,0c0,4.81-3.9,8.7-8.7,8.7s-8.7-3.9-8.7-8.7c0,0,0,0,0,0h-17.41s0,0,0,0c0,4.81-3.9,8.7-8.7,8.7s-8.7-3.9-8.7-8.7c0,0,0,0,0,0h-17.41s0,0,0,0c0,4.81-3.9,8.7-8.7,8.7s-8.7-3.9-8.7-8.7c0,0,0,0,0,0h-17.41s0,0,0,0c0,4.81-3.9,8.7-8.7,8.7s-8.7-3.9-8.7-8.7c0,0,0,0,0,0h-25.91s0,0,0,0v17.41h0c4.81,0,8.7,3.9,8.7,8.7s-3.9,8.7-8.7,8.7h0v17.41h0c4.81,0,8.7,3.9,8.7,8.7s-3.9,8.7-8.7,8.7h0v17.41h0c4.81,0,8.7,3.9,8.7,8.7s-3.9,8.7-8.7,8.7h0v17.41h0c5.72,0,10.15,5.52,8.26,11.52-1.12,3.56-4.53,5.89-8.26,5.89h0s0,0,0,0v17.41s0,0,0,0h0c3.73,0,7.14,2.33,8.26,5.89,1.89,6-2.54,11.52-8.26,11.52h0v17.41s0,0,0,0h0c3.73,0,7.14,2.33,8.26,5.89,1.89,6-2.54,11.52-8.26,11.52h0v17.41s0,0,0,0h0c3.73,0,7.14,2.33,8.26,5.89,1.89,6-2.54,11.52-8.26,11.52h0v17.41s0,0,0,0h0c3.73,0,7.14,2.33,8.26,5.89,1.89,6-2.54,11.52-8.26,11.52h0v17.41s0,0,0,0h0c3.73,0,7.14,2.33,8.26,5.89,1.89,6-2.54,11.52-8.26,11.52h0v17.41s0,0,0,0h0c3.73,0,7.14,2.33,8.26,5.89,1.89,6-2.54,11.52-8.26,11.52h0v17.41s0,0,0,0h0c3.73,0,7.14,2.33,8.26,5.89,1.89,6-2.54,11.52-8.26,11.52h0v17.41s0,0,0,0h0c3.73,0,7.14,2.33,8.26,5.89,1.89,6-2.54,11.52-8.26,11.52h0v17.41s0,0,0,0h25.91s0,0,0,0c0-4.81,3.9-8.7,8.7-8.7s8.7,3.9,8.7,8.7c0,0,0,0,0,0h17.41s0,0,0,0c0-4.81,3.9-8.7,8.7-8.7s8.7,3.9,8.7,8.7c0,0,0,0,0,0h17.41s0,0,0,0c0-4.81,3.9-8.7,8.7-8.7s8.7,3.9,8.7,8.7c0,0,0,0,0,0h17.41s0,0,0,0c0-4.81,3.9-8.7,8.7-8.7s8.7,3.9,8.7,8.7c0,0,0,0,0,0h17.41s0,0,0,0c0-4.81,3.9-8.7,8.7-8.7s8.7,3.9,8.7,8.7c0,0,0,0,0,0h17.41s0,0,0,0c0-4.81,3.9-8.7,8.7-8.7s8.7,3.9,8.7,8.7c0,0,0,0,0,0h17.41s0,0,0,0c0-4.81,3.9-8.7,8.7-8.7s8.7,3.9,8.7,8.7c0,0,0,0,0,0h17.41s0,0,0,0c0-4.81,3.9-8.7,8.7-8.7s8.7,3.9,8.7,8.7c0,0,0,0,0,0h17.41s0,0,0,0c0-4.81,3.9-8.7,8.7-8.7s8.7,3.9,8.7,8.7c0,0,0,0,0,0h17.41s0,0,0,0c0-4.81,3.9-8.7,8.7-8.7s8.7,3.9,8.7,8.7c0,0,0,0,0,0h25.91s0,0,0,0v-17.41s0,0,0,0c-4.81,0-8.7-3.9-8.7-8.7Z"/>
    <rect class="cls-11" x="1148.72" y="1165.82" width="314.37" height="322.55" rx="18" ry="18" transform="translate(2633.01 21.19) rotate(90)"/>
    <rect class="cls-11" x="1250.11" y="1388.81" width="50.8" height="261.75" rx="18" ry="18" transform="translate(2795.2 244.18) rotate(90)"/>
    <text class="cls-22" transform="translate(1256.5 1525.99)"><tspan x="0" y="0">EEC</tspan></text>
    <rect class="cls-11" x="1416.38" y="1494.29" width="50.8" height="50.8" rx="18" ry="18"/>
  </g>
  <g>
    <path class="cls-55" d="M1951.03,1548.98c0-4.81,3.9-8.7,8.7-8.7,0,0,0,0,0,0v-17.41s0,0,0,0c-4.81,0-8.7-3.9-8.7-8.7s3.9-8.7,8.7-8.7c0,0,0,0,0,0v-17.41h0c-4.81,0-8.7-3.9-8.7-8.7s3.9-8.7,8.7-8.7h0v-17.41h0c-4.81,0-8.7-3.9-8.7-8.7s3.9-8.7,8.7-8.7h0v-17.41h0c-4.81,0-8.7-3.9-8.7-8.7s3.9-8.7,8.7-8.7h0v-17.41h0c-4.81,0-8.7-3.9-8.7-8.7s3.9-8.7,8.7-8.7h0v-17.41h0c-4.81,0-8.7-3.9-8.7-8.7s3.9-8.7,8.7-8.7h0v-17.41h0c-4.81,0-8.7-3.9-8.7-8.7s3.9-8.7,8.7-8.7h0v-17.41h0c-4.81,0-8.7-3.9-8.7-8.7s3.9-8.7,8.7-8.7h0v-17.41s0,0,0,0h0c-3.73,0-7.14-2.33-8.26-5.89-1.89-6,2.54-11.52,8.26-11.52h0v-17.41s0,0,0,0h0c-3.73,0-7.14-2.33-8.26-5.89-1.89-6,2.54-11.52,8.26-11.52h0v-17.41s0,0,0,0h0c-3.73,0-7.14-2.33-8.26-5.89-1.89-6,2.54-11.52,8.26-11.52h0v-17.41s0,0,0,0h-25.91s0,0,0,0c0,4.81-3.9,8.7-8.7,8.7s-8.7-3.9-8.7-8.7c0,0,0,0,0,0h-17.41s0,0,0,0c0,4.81-3.9,8.7-8.7,8.7s-8.7-3.9-8.7-8.7c0,0,0,0,0,0h-17.41s0,0,0,0c0,4.81-3.9,8.7-8.7,8.7s-8.7-3.9-8.7-8.7c0,0,0,0,0,0h-17.41s0,0,0,0c0,4.81-3.9,8.7-8.7,8.7s-8.7-3.9-8.7-8.7c0,0,0,0,0,0h-17.41s0,0,0,0c0,4.81-3.9,8.7-8.7,8.7s-8.7-3.9-8.7-8.7c0,0,0,0,0,0h-17.41s0,0,0,0c0,4.81-3.9,8.7-8.7,8.7s-8.7-3.9-8.7-8.7c0,0,0,0,0,0h-17.41s0,0,0,0c0,4.81-3.9,8.7-8.7,8.7s-8.7-3.9-8.7-8.7c0,0,0,0,0,0h-17.41s0,0,0,0c0,4.81-3.9,8.7-8.7,8.7s-8.7-3.9-8.7-8.7c0,0,0,0,0,0h-17.41s0,0,0,0c0,4.81-3.9,8.7-8.7,8.7s-8.7-3.9-8.7-8.7c0,0,0,0,0,0h-17.41s0,0,0,0c0,4.81-3.9,8.7-8.7,8.7s-8.7-3.9-8.7-8.7c0,0,0,0,0,0h-25.91s0,0,0,0v17.41h0c4.81,0,8.7,3.9,8.7,8.7s-3.9,8.7-8.7,8.7h0v17.41h0c4.81,0,8.7,3.9,8.7,8.7s-3.9,8.7-8.7,8.7h0v17.41h0c4.81,0,8.7,3.9,8.7,8.7s-3.9,8.7-8.7,8.7h0v17.41h0c5.72,0,10.15,5.52,8.26,11.52-1.12,3.56-4.53,5.89-8.26,5.89h0s0,0,0,0v17.41s0,0,0,0h0c3.73,0,7.14,2.33,8.26,5.89,1.89,6-2.54,11.52-8.26,11.52h0v17.41s0,0,0,0h0c3.73,0,7.14,2.33,8.26,5.89,1.89,6-2.54,11.52-8.26,11.52h0v17.41s0,0,0,0h0c3.73,0,7.14,2.33,8.26,5.89,1.89,6-2.54,11.52-8.26,11.52h0v17.41s0,0,0,0h0c3.73,0,7.14,2.33,8.26,5.89,1.89,6-2.54,11.52-8.26,11.52h0v17.41s0,0,0,0h0c3.73,0,7.14,2.33,8.26,5.89,1.89,6-2.54,11.52-8.26,11.52h0v17.41s0,0,0,0h0c3.73,0,7.14,2.33,8.26,5.89,1.89,6-2.54,11.52-8.26,11.52h0v17.41s0,0,0,0h0c3.73,0,7.14,2.33,8.26,5.89,1.89,6-2.54,11.52-8.26,11.52h0v17.41s0,0,0,0h0c3.73,0,7.14,2.33,8.26,5.89,1.89,6-2.54,11.52-8.26,11.52h0v17.41s0,0,0,0h25.91s0,0,0,0c0-4.81,3.9-8.7,8.7-8.7s8.7,3.9,8.7,8.7c0,0,0,0,0,0h17.41s0,0,0,0c0-4.81,3.9-8.7,8.7-8.7s8.7,3.9,8.7,8.7c0,0,0,0,0,0h17.41s0,0,0,0c0-4.81,3.9-8.7,8.7-8.7s8.7,3.9,8.7,8.7c0,0,0,0,0,0h17.41s0,0,0,0c0-4.81,3.9-8.7,8.7-8.7s8.7,3.9,8.7,8.7c0,0,0,0,0,0h17.41s0,0,0,0c0-4.81,3.9-8.7,8.7-8.7s8.7,3.9,8.7,8.7c0,0,0,0,0,0h17.41s0,0,0,0c0-4.81,3.9-8.7,8.7-8.7s8.7,3.9,8.7,8.7c0,0,0,0,0,0h17.41s0,0,0,0c0-4.81,3.9-8.7,8.7-8.7s8.7,3.9,8.7,8.7c0,0,0,0,0,0h17.41s0,0,0,0c0-4.81,3.9-8.7,8.7-8.7s8.7,3.9,8.7,8.7c0,0,0,0,0,0h17.41s0,0,0,0c0-4.81,3.9-8.7,8.7-8.7s8.7,3.9,8.7,8.7c0,0,0,0,0,0h17.41s0,0,0,0c0-4.81,3.9-8.7,8.7-8.7s8.7,3.9,8.7,8.7c0,0,0,0,0,0h25.91s0,0,0,0v-17.41s0,0,0,0c-4.81,0-8.7-3.9-8.7-8.7Z"/>
    <rect class="cls-11" x="1611.27" y="1165.82" width="314.37" height="322.55" rx="18" ry="18" transform="translate(3095.56 -441.36) rotate(90)"/>
    <rect class="cls-11" x="1712.66" y="1388.81" width="50.8" height="261.75" rx="18" ry="18" transform="translate(3257.75 -218.37) rotate(90)"/>
    <text class="cls-22" transform="translate(1662.51 1525.99)"><tspan x="0" y="0">PROJECT FOUR</tspan></text>
    <rect class="cls-11" x="1878.93" y="1494.29" width="50.8" height="50.8" rx="18" ry="18"/>
  </g>
  <g>
    <path class="cls-51" d="M934.21,644.61c-.38-4.32,2.82-8.13,7.14-8.51,0,0,0,0,0,0l-1.37-15.65s0,0,0,0c-4.32.38-8.13-2.82-8.51-7.14s2.82-8.13,7.14-8.51c0,0,0,0,0,0l-1.37-15.65h0c-4.32.38-8.13-2.82-8.51-7.14s2.82-8.13,7.14-8.51h0l-1.37-15.65h0c-4.32.38-8.13-2.82-8.51-7.14-.38-4.32,2.82-8.13,7.14-8.51h0l-1.37-15.65h0c-4.32.38-8.13-2.82-8.51-7.14s2.82-8.13,7.14-8.51h0l-1.37-15.65h0c-4.32.38-8.13-2.82-8.51-7.14s2.82-8.13,7.14-8.51h0l-1.37-15.65h0c-4.32.38-8.13-2.82-8.51-7.14s2.82-8.13,7.14-8.51h0l-1.37-15.65h0c-4.32.38-8.13-2.82-8.51-7.14s2.82-8.13,7.14-8.51h0l-1.37-15.65h0c-4.32.38-8.13-2.82-8.51-7.14s2.82-8.13,7.14-8.51h0l-1.37-15.65s0,0,0,0h0c-3.35.29-6.61-1.54-7.89-4.65-2.17-5.25,1.38-10.56,6.52-11h0s-1.37-15.65-1.37-15.65c0,0,0,0,0,0h0c-3.35.29-6.61-1.54-7.89-4.64-2.17-5.25,1.38-10.56,6.52-11.01h0s-1.37-15.65-1.37-15.65c0,0,0,0,0,0h0c-3.35.29-6.61-1.54-7.89-4.65-2.17-5.25,1.38-10.56,6.52-11h0s-1.37-15.65-1.37-15.65c0,0,0,0,0,0l-23.29,2.04s0,0,0,0c.38,4.32-2.82,8.13-7.14,8.51-4.32.38-8.13-2.82-8.51-7.14,0,0,0,0,0,0l-15.65,1.37s0,0,0,0c.38,4.32-2.82,8.13-7.14,8.51s-8.13-2.82-8.51-7.14c0,0,0,0,0,0l-15.65,1.37s0,0,0,0c.38,4.32-2.82,8.13-7.14,8.51s-8.13-2.82-8.51-7.14c0,0,0,0,0,0l-15.65,1.37s0,0,0,0c.38,4.32-2.82,8.13-7.14,8.51s-8.13-2.82-8.51-7.14c0,0,0,0,0,0l-15.65,1.37s0,0,0,0c.38,4.32-2.82,8.13-7.14,8.51s-8.13-2.82-8.51-7.14c0,0,0,0,0,0l-15.65,1.37s0,0,0,0c.38,4.32-2.82,8.13-7.14,8.51s-8.13-2.82-8.51-7.14c0,0,0,0,0,0l-15.65,1.37s0,0,0,0c.38,4.32-2.82,8.13-7.14,8.51s-8.13-2.82-8.51-7.14c0,0,0,0,0,0l-15.65,1.37s0,0,0,0c.38,4.32-2.82,8.13-7.14,8.51s-8.13-2.82-8.51-7.14c0,0,0,0,0,0l-15.65,1.37s0,0,0,0c.38,4.32-2.82,8.13-7.14,8.51s-8.13-2.82-8.51-7.14c0,0,0,0,0,0l-15.65,1.37s0,0,0,0c.38,4.32-2.82,8.13-7.14,8.51s-8.13-2.82-8.51-7.14c0,0,0,0,0,0l-23.29,2.04s0,0,0,0l1.37,15.65h0c4.32-.38,8.13,2.82,8.51,7.14s-2.82,8.13-7.14,8.51h0l1.37,15.65h0c4.32-.38,8.13,2.82,8.51,7.14s-2.82,8.13-7.14,8.51h0l1.37,15.65h0c4.32-.38,8.13,2.82,8.51,7.14s-2.82,8.13-7.14,8.51h0l1.37,15.65h0c5.14-.45,9.56,4.16,8.33,9.71-.73,3.28-3.61,5.65-6.96,5.94h0s0,0,0,0l1.37,15.65s0,0,0,0h0c3.35-.29,6.61,1.54,7.89,4.64,2.17,5.25-1.38,10.56-6.52,11.01h0s1.37,15.65,1.37,15.65c0,0,0,0,0,0h0c3.35-.29,6.61,1.54,7.89,4.65,2.17,5.25-1.38,10.56-6.52,11h0s1.37,15.65,1.37,15.65c0,0,0,0,0,0h0c3.35-.29,6.61,1.54,7.89,4.64,2.17,5.25-1.38,10.56-6.52,11.01h0s1.37,15.65,1.37,15.65c0,0,0,0,0,0h0c3.35-.29,6.61,1.54,7.89,4.64,2.17,5.25-1.38,10.56-6.52,11.01h0s1.37,15.65,1.37,15.65c0,0,0,0,0,0h0c3.35-.29,6.61,1.54,7.89,4.64,2.17,5.25-1.38,10.56-6.52,11.01h0s1.37,15.65,1.37,15.65c0,0,0,0,0,0h0c3.35-.29,6.61,1.54,7.89,4.64,2.17,5.25-1.38,10.56-6.52,11.01h0s1.37,15.65,1.37,15.65c0,0,0,0,0,0h0c3.35-.29,6.61,1.54,7.89,4.64,2.17,5.25-1.38,10.56-6.52,11.01h0s1.37,15.65,1.37,15.65c0,0,0,0,0,0h0c3.35-.29,6.61,1.54,7.89,4.64,2.17,5.25-1.38,10.56-6.52,11.01h0s1.37,15.65,1.37,15.65c0,0,0,0,0,0l23.29-2.04s0,0,0,0c-.38-4.32,2.82-8.13,7.14-8.51s8.13,2.82,8.51,7.14c0,0,0,0,0,0l15.65-1.37s0,0,0,0c-.38-4.32,2.82-8.13,7.14-8.51,4.32-.38,8.13,2.82,8.51,7.14,0,0,0,0,0,0l15.65-1.37s0,0,0,0c-.38-4.32,2.82-8.13,7.14-8.51,4.32-.38,8.13,2.82,8.51,7.14,0,0,0,0,0,0l15.65-1.37s0,0,0,0c-.38-4.32,2.82-8.13,7.14-8.51s8.13,2.82,8.51,7.14c0,0,0,0,0,0l15.65-1.37s0,0,0,0c-.38-4.32,2.82-8.13,7.14-8.51,4.32-.38,8.13,2.82,8.51,7.14,0,0,0,0,0,0l15.65-1.37s0,0,0,0c-.38-4.32,2.82-8.13,7.14-8.51,4.32-.38,8.13,2.82,8.51,7.14,0,0,0,0,0,0l15.65-1.37s0,0,0,0c-.38-4.32,2.82-8.13,7.14-8.51s8.13,2.82,8.51,7.14c0,0,0,0,0,0l15.65-1.37s0,0,0,0c-.38-4.32,2.82-8.13,7.14-8.51,4.32-.38,8.13,2.82,8.51,7.14,0,0,0,0,0,0l15.65-1.37s0,0,0,0c-.38-4.32,2.82-8.13,7.14-8.51s8.13,2.82,8.51,7.14c0,0,0,0,0,0l15.65-1.37s0,0,0,0c-.38-4.32,2.82-8.13,7.14-8.51,4.32-.38,8.13,2.82,8.51,7.14,0,0,0,0,0,0l23.29-2.04s0,0,0,0l-1.37-15.65s0,0,0,0c-4.32.38-8.13-2.82-8.51-7.14Z"/>
    <rect class="cls-11" x="585.71" y="341.27" width="338.6" height="291.1" rx="22.93" ry="22.93" transform="translate(1174.18 -307.74) rotate(85)"/>
  </g>
  <g>
    <path class="cls-34" d="M1095.32,644.61c.38-4.32-2.82-8.13-7.14-8.51,0,0,0,0,0,0l1.37-15.65s0,0,0,0c4.32.38,8.13-2.82,8.51-7.14.38-4.32-2.82-8.13-7.14-8.51,0,0,0,0,0,0l1.37-15.65h0c4.32.38,8.13-2.82,8.51-7.14s-2.82-8.13-7.14-8.51h0l1.37-15.65h0c4.32.38,8.13-2.82,8.51-7.14.38-4.32-2.82-8.13-7.14-8.51h0l1.37-15.65h0c4.32.38,8.13-2.82,8.51-7.14s-2.82-8.13-7.14-8.51h0l1.37-15.65h0c4.32.38,8.13-2.82,8.51-7.14.38-4.32-2.82-8.13-7.14-8.51h0l1.37-15.65h0c4.32.38,8.13-2.82,8.51-7.14.38-4.32-2.82-8.13-7.14-8.51h0l1.37-15.65h0c4.32.38,8.13-2.82,8.51-7.14.38-4.32-2.82-8.13-7.14-8.51h0l1.37-15.65h0c4.32.38,8.13-2.82,8.51-7.14s-2.82-8.13-7.14-8.51h0l1.37-15.65s0,0,0,0h0c3.35.29,6.61-1.54,7.89-4.65,2.17-5.25-1.38-10.56-6.52-11h0s1.37-15.65,1.37-15.65c0,0,0,0,0,0h0c3.35.29,6.61-1.54,7.89-4.64,2.17-5.25-1.38-10.56-6.52-11.01h0s1.37-15.65,1.37-15.65c0,0,0,0,0,0h0c3.35.29,6.61-1.54,7.89-4.65,2.17-5.25-1.38-10.56-6.52-11h0s1.37-15.65,1.37-15.65c0,0,0,0,0,0l23.29,2.04s0,0,0,0c-.38,4.32,2.82,8.13,7.14,8.51,4.32.38,8.13-2.82,8.51-7.14,0,0,0,0,0,0l15.65,1.37s0,0,0,0c-.38,4.32,2.82,8.13,7.14,8.51s8.13-2.82,8.51-7.14c0,0,0,0,0,0l15.65,1.37s0,0,0,0c-.38,4.32,2.82,8.13,7.14,8.51s8.13-2.82,8.51-7.14c0,0,0,0,0,0l15.65,1.37s0,0,0,0c-.38,4.32,2.82,8.13,7.14,8.51,4.32.38,8.13-2.82,8.51-7.14,0,0,0,0,0,0l15.65,1.37s0,0,0,0c-.38,4.32,2.82,8.13,7.14,8.51,4.32.38,8.13-2.82,8.51-7.14,0,0,0,0,0,0l15.65,1.37s0,0,0,0c-.38,4.32,2.82,8.13,7.14,8.51s8.13-2.82,8.51-7.14c0,0,0,0,0,0l15.65,1.37s0,0,0,0c-.38,4.32,2.82,8.13,7.14,8.51s8.13-2.82,8.51-7.14c0,0,0,0,0,0l15.65,1.37s0,0,0,0c-.38,4.32,2.82,8.13,7.14,8.51s8.13-2.82,8.51-7.14c0,0,0,0,0,0l15.65,1.37s0,0,0,0c-.38,4.32,2.82,8.13,7.14,8.51s8.13-2.82,8.51-7.14c0,0,0,0,0,0l15.65,1.37s0,0,0,0c-.38,4.32,2.82,8.13,7.14,8.51s8.13-2.82,8.51-7.14c0,0,0,0,0,0l23.29,2.04s0,0,0,0l-1.37,15.65h0c-4.32-.38-8.13,2.82-8.51,7.14s2.82,8.13,7.14,8.51h0l-1.37,15.65h0c-4.32-.38-8.13,2.82-8.51,7.14s2.82,8.13,7.14,8.51h0l-1.37,15.65h0c-4.32-.38-8.13,2.82-8.51,7.14s2.82,8.13,7.14,8.51h0l-1.37,15.65h0c-5.14-.45-9.56,4.16-8.33,9.71.73,3.28,3.61,5.65,6.96,5.94h0s0,0,0,0l-1.37,15.65s0,0,0,0h0c-3.35-.29-6.61,1.54-7.89,4.64-2.17,5.25,1.38,10.56,6.52,11.01h0s-1.37,15.65-1.37,15.65c0,0,0,0,0,0h0c-3.35-.29-6.61,1.54-7.89,4.65-2.17,5.25,1.38,10.56,6.52,11h0s-1.37,15.65-1.37,15.65c0,0,0,0,0,0h0c-3.35-.29-6.61,1.54-7.89,4.64-2.17,5.25,1.38,10.56,6.52,11.01h0s-1.37,15.65-1.37,15.65c0,0,0,0,0,0h0c-3.35-.29-6.61,1.54-7.89,4.64-2.17,5.25,1.38,10.56,6.52,11.01h0s-1.37,15.65-1.37,15.65c0,0,0,0,0,0h0c-3.35-.29-6.61,1.54-7.89,4.64-2.17,5.25,1.38,10.56,6.52,11.01h0s-1.37,15.65-1.37,15.65c0,0,0,0,0,0h0c-3.35-.29-6.61,1.54-7.89,4.64-2.17,5.25,1.38,10.56,6.52,11.01h0s-1.37,15.65-1.37,15.65c0,0,0,0,0,0h0c-3.35-.29-6.61,1.54-7.89,4.64-2.17,5.25,1.38,10.56,6.52,11.01h0s-1.37,15.65-1.37,15.65c0,0,0,0,0,0h0c-3.35-.29-6.61,1.54-7.89,4.64-2.17,5.25,1.38,10.56,6.52,11.01h0s-1.37,15.65-1.37,15.65c0,0,0,0,0,0l-23.29-2.04s0,0,0,0c.38-4.32-2.82-8.13-7.14-8.51s-8.13,2.82-8.51,7.14c0,0,0,0,0,0l-15.65-1.37s0,0,0,0c.38-4.32-2.82-8.13-7.14-8.51-4.32-.38-8.13,2.82-8.51,7.14,0,0,0,0,0,0l-15.65-1.37s0,0,0,0c.38-4.32-2.82-8.13-7.14-8.51-4.32-.38-8.13,2.82-8.51,7.14,0,0,0,0,0,0l-15.65-1.37s0,0,0,0c.38-4.32-2.82-8.13-7.14-8.51s-8.13,2.82-8.51,7.14c0,0,0,0,0,0l-15.65-1.37s0,0,0,0c.38-4.32-2.82-8.13-7.14-8.51s-8.13,2.82-8.51,7.14c0,0,0,0,0,0l-15.65-1.37s0,0,0,0c.38-4.32-2.82-8.13-7.14-8.51-4.32-.38-8.13,2.82-8.51,7.14,0,0,0,0,0,0l-15.65-1.37s0,0,0,0c.38-4.32-2.82-8.13-7.14-8.51-4.32-.38-8.13,2.82-8.51,7.14,0,0,0,0,0,0l-15.65-1.37s0,0,0,0c.38-4.32-2.82-8.13-7.14-8.51-4.32-.38-8.13,2.82-8.51,7.14,0,0,0,0,0,0l-15.65-1.37s0,0,0,0c.38-4.32-2.82-8.13-7.14-8.51s-8.13,2.82-8.51,7.14c0,0,0,0,0,0l-15.65-1.37s0,0,0,0c.38-4.32-2.82-8.13-7.14-8.51-4.32-.38-8.13,2.82-8.51,7.14,0,0,0,0,0,0l-23.29-2.04s0,0,0,0l1.37-15.65s0,0,0,0c4.32.38,8.13-2.82,8.51-7.14Z"/>
    <rect class="cls-11" x="1105.22" y="341.27" width="338.6" height="291.1" rx="22.93" ry="22.93" transform="translate(1870.57 -740.42) rotate(95)"/>
  </g>
  <path class="cls-55" d="M1197.34,666.41c0-4.81,3.9-8.7,8.7-8.7,0,0,0,0,0,0v-17.41s0,0,0,0c-4.81,0-8.7-3.9-8.7-8.7s3.9-8.7,8.7-8.7c0,0,0,0,0,0v-17.41h0c-4.81,0-8.7-3.9-8.7-8.7s3.9-8.7,8.7-8.7h0v-17.41h0c-4.81,0-8.7-3.9-8.7-8.7s3.9-8.7,8.7-8.7h0v-17.41h0c-4.81,0-8.7-3.9-8.7-8.7s3.9-8.7,8.7-8.7h0v-17.41h0c-4.81,0-8.7-3.9-8.7-8.7s3.9-8.7,8.7-8.7h0v-17.41h0c-4.81,0-8.7-3.9-8.7-8.7s3.9-8.7,8.7-8.7h0v-17.41h0c-4.81,0-8.7-3.9-8.7-8.7s3.9-8.7,8.7-8.7h0v-17.41h0c-4.81,0-8.7-3.9-8.7-8.7s3.9-8.7,8.7-8.7h0v-17.41s0,0,0,0h0c-3.73,0-7.14-2.33-8.26-5.89-1.89-6,2.54-11.52,8.26-11.52h0v-17.41s0,0,0,0h0c-3.73,0-7.14-2.33-8.26-5.89-1.89-6,2.54-11.52,8.26-11.52h0v-17.41s0,0,0,0h0c-3.73,0-7.14-2.33-8.26-5.89-1.89-6,2.54-11.52,8.26-11.52h0v-17.41s0,0,0,0h-25.91s0,0,0,0c0,4.81-3.9,8.7-8.7,8.7s-8.7-3.9-8.7-8.7c0,0,0,0,0,0h-17.41s0,0,0,0c0,4.81-3.9,8.7-8.7,8.7s-8.7-3.9-8.7-8.7c0,0,0,0,0,0h-17.41s0,0,0,0c0,4.81-3.9,8.7-8.7,8.7s-8.7-3.9-8.7-8.7c0,0,0,0,0,0h-17.41s0,0,0,0c0,4.81-3.9,8.7-8.7,8.7s-8.7-3.9-8.7-8.7c0,0,0,0,0,0h-17.41s0,0,0,0c0,4.81-3.9,8.7-8.7,8.7s-8.7-3.9-8.7-8.7c0,0,0,0,0,0h-17.41s0,0,0,0c0,4.81-3.9,8.7-8.7,8.7s-8.7-3.9-8.7-8.7c0,0,0,0,0,0h-17.41s0,0,0,0c0,4.81-3.9,8.7-8.7,8.7s-8.7-3.9-8.7-8.7c0,0,0,0,0,0h-17.41s0,0,0,0c0,4.81-3.9,8.7-8.7,8.7s-8.7-3.9-8.7-8.7c0,0,0,0,0,0h-17.41s0,0,0,0c0,4.81-3.9,8.7-8.7,8.7s-8.7-3.9-8.7-8.7c0,0,0,0,0,0h-17.41s0,0,0,0c0,4.81-3.9,8.7-8.7,8.7s-8.7-3.9-8.7-8.7c0,0,0,0,0,0h-25.91s0,0,0,0v17.41h0c4.81,0,8.7,3.9,8.7,8.7s-3.9,8.7-8.7,8.7h0v17.41h0c4.81,0,8.7,3.9,8.7,8.7s-3.9,8.7-8.7,8.7h0v17.41h0c4.81,0,8.7,3.9,8.7,8.7s-3.9,8.7-8.7,8.7h0v17.41h0c5.72,0,10.15,5.52,8.26,11.52-1.12,3.56-4.53,5.89-8.26,5.89h0s0,0,0,0v17.41s0,0,0,0h0c3.73,0,7.14,2.33,8.26,5.89,1.89,6-2.54,11.52-8.26,11.52h0v17.41s0,0,0,0h0c3.73,0,7.14,2.33,8.26,5.89,1.89,6-2.54,11.52-8.26,11.52h0v17.41s0,0,0,0h0c3.73,0,7.14,2.33,8.26,5.89,1.89,6-2.54,11.52-8.26,11.52h0v17.41s0,0,0,0h0c3.73,0,7.14,2.33,8.26,5.89,1.89,6-2.54,11.52-8.26,11.52h0v17.41s0,0,0,0h0c3.73,0,7.14,2.33,8.26,5.89,1.89,6-2.54,11.52-8.26,11.52h0v17.41s0,0,0,0h0c3.73,0,7.14,2.33,8.26,5.89,1.89,6-2.54,11.52-8.26,11.52h0v17.41s0,0,0,0h0c3.73,0,7.14,2.33,8.26,5.89,1.89,6-2.54,11.52-8.26,11.52h0v17.41s0,0,0,0h0c3.73,0,7.14,2.33,8.26,5.89,1.89,6-2.54,11.52-8.26,11.52h0v17.41s0,0,0,0h25.91s0,0,0,0c0-4.81,3.9-8.7,8.7-8.7s8.7,3.9,8.7,8.7c0,0,0,0,0,0h17.41s0,0,0,0c0-4.81,3.9-8.7,8.7-8.7s8.7,3.9,8.7,8.7c0,0,0,0,0,0h17.41s0,0,0,0c0-4.81,3.9-8.7,8.7-8.7s8.7,3.9,8.7,8.7c0,0,0,0,0,0h17.41s0,0,0,0c0-4.81,3.9-8.7,8.7-8.7s8.7,3.9,8.7,8.7c0,0,0,0,0,0h17.41s0,0,0,0c0-4.81,3.9-8.7,8.7-8.7s8.7,3.9,8.7,8.7c0,0,0,0,0,0h17.41s0,0,0,0c0-4.81,3.9-8.7,8.7-8.7s8.7,3.9,8.7,8.7c0,0,0,0,0,0h17.41s0,0,0,0c0-4.81,3.9-8.7,8.7-8.7s8.7,3.9,8.7,8.7c0,0,0,0,0,0h17.41s0,0,0,0c0-4.81,3.9-8.7,8.7-8.7s8.7,3.9,8.7,8.7c0,0,0,0,0,0h17.41s0,0,0,0c0-4.81,3.9-8.7,8.7-8.7s8.7,3.9,8.7,8.7c0,0,0,0,0,0h17.41s0,0,0,0c0-4.81,3.9-8.7,8.7-8.7s8.7,3.9,8.7,8.7c0,0,0,0,0,0h25.91s0,0,0,0v-17.41s0,0,0,0c-4.81,0-8.7-3.9-8.7-8.7Z"/>
  <rect class="cls-11" x="827.18" y="313.66" width="375.18" height="322.55" rx="22.93" ry="22.93" transform="translate(1489.7 -539.83) rotate(90)"/>
  <path class="cls-34" d="M1920,3413.35H0v-556.28c0-35.62,24.85-66.39,59.66-73.93,127.1-27.51,450.16-85.96,900.34-85.96s773.24,58.45,900.34,85.96c34.81,7.53,59.66,38.31,59.66,73.93v556.28Z"/>
  <text class="cls-5" transform="translate(831.81 3360.64)"><tspan x="0" y="0" xml:space="preserve">©ALL RIGHTS RESERVED 2026  KIDUS</tspan></text>
  <text class="cls-12" transform="translate(54.01 3107.68)"><tspan x="0" y="0">CON</tspan><tspan class="cls-3" x="847.55" y="0">T</tspan><tspan class="cls-41" x="1051.79" y="0">A</tspan><tspan class="cls-54" x="1316.86" y="0">CT</tspan></text>
  <text class="cls-6" transform="translate(830.29 3230.69)"><tspan x="0" y="0">kidusmi</tspan><tspan class="cls-40" x="81.84" y="0">n</tspan><tspan class="cls-19" x="95.04" y="0">y</tspan><tspan x="107.38" y="0">el@gmail.com</tspan></text>
  <text class="cls-13" transform="translate(830.29 3264.54)"><tspan x="0" y="0">INS</tspan><tspan class="cls-27" x="33.38" y="0">T</tspan><tspan class="cls-17" x="43.78" y="0">A</tspan><tspan x="57.3" y="0">G</tspan><tspan class="cls-28" x="72.16" y="0">R</tspan><tspan class="cls-18" x="85.18" y="0">AM</tspan></text>
  <text class="cls-13" transform="translate(997.39 3264.54)"><tspan x="0" y="0">LINKEDIN</tspan></text>
</svg>