<?xml version="1.0" encoding="UTF-8"?>
<svg id="Layer_2" data-name="Layer 2" xmlns="http://www.w3.org/2000/svg" viewBox="0 0 382.55 435.18">
  <defs>
    <style>
      .cls-1 {
        fill: lime;
      }
    </style>
  </defs>
  <g id="Layer_1-2" data-name="Layer 1">
    <path class="cls-1" d="M373.85,409.07c0-4.81,3.9-8.7,8.7-8.7,0,0,0,0,0,0v-17.41s0,0,0,0c-4.81,0-8.7-3.9-8.7-8.7s3.9-8.7,8.7-8.7c0,0,0,0,0,0v-17.41h0c-4.81,0-8.7-3.9-8.7-8.7s3.9-8.7,8.7-8.7h0v-17.41h0c-4.81,0-8.7-3.9-8.7-8.7s3.9-8.7,8.7-8.7h0v-17.41h0c-4.81,0-8.7-3.9-8.7-8.7s3.9-8.7,8.7-8.7h0v-17.41h0c-4.81,0-8.7-3.9-8.7-8.7s3.9-8.7,8.7-8.7h0v-17.41h0c-4.81,0-8.7-3.9-8.7-8.7s3.9-8.7,8.7-8.7h0v-17.41h0c-4.81,0-8.7-3.9-8.7-8.7s3.9-8.7,8.7-8.7h0v-17.41h0c-4.81,0-8.7-3.9-8.7-8.7s3.9-8.7,8.7-8.7h0v-17.41s0,0,0,0h0c-3.73,0-7.14-2.33-8.26-5.89-1.89-6,2.54-11.52,8.26-11.52h0v-17.41s0,0,0,0h0c-3.73,0-7.14-2.33-8.26-5.89-1.89-6,2.54-11.52,8.26-11.52h0v-17.41s0,0,0,0h0c-3.73,0-7.14-2.33-8.26-5.89-1.89-6,2.54-11.52,8.26-11.52h0V0s0,0,0,0h-25.91s0,0,0,0c0,4.81-3.9,8.7-8.7,8.7S339.24,4.81,339.24,0c0,0,0,0,0,0h-17.41s0,0,0,0c0,4.81-3.9,8.7-8.7,8.7S304.42,4.81,304.42,0c0,0,0,0,0,0h-17.41s0,0,0,0c0,4.81-3.9,8.7-8.7,8.7S269.61,4.81,269.61,0c0,0,0,0,0,0h-17.41s0,0,0,0c0,4.81-3.9,8.7-8.7,8.7S234.79,4.81,234.79,0c0,0,0,0,0,0h-17.41s0,0,0,0c0,4.81-3.9,8.7-8.7,8.7S199.98,4.81,199.98,0c0,0,0,0,0,0h-17.41s0,0,0,0c0,4.81-3.9,8.7-8.7,8.7S165.16,4.81,165.16,0c0,0,0,0,0,0h-17.41s0,0,0,0c0,4.81-3.9,8.7-8.7,8.7S130.35,4.81,130.35,0c0,0,0,0,0,0h-17.41s0,0,0,0c0,4.81-3.9,8.7-8.7,8.7S95.54,4.81,95.54,0c0,0,0,0,0,0h-17.41s0,0,0,0c0,4.81-3.9,8.7-8.7,8.7S60.72,4.81,60.72,0c0,0,0,0,0,0h-17.41s0,0,0,0c0,4.81-3.9,8.7-8.7,8.7S25.91,4.81,25.91,0c0,0,0,0,0,0H0s0,0,0,0v17.41H0c4.81,0,8.7,3.9,8.7,8.7S4.81,34.81,0,34.81H0v17.41H0c4.81,0,8.7,3.9,8.7,8.7S4.81,69.63,0,69.63H0v17.41H0c4.81,0,8.7,3.9,8.7,8.7S4.81,104.44,0,104.44H0v17.41H0c5.72,0,10.15,5.52,8.26,11.52-1.12,3.56-4.53,5.89-8.26,5.89h0s0,0,0,0v17.41s0,0,0,0h0c3.73,0,7.14,2.33,8.26,5.89,1.89,6-2.54,11.52-8.26,11.52h0v17.41s0,0,0,0h0c3.73,0,7.14,2.33,8.26,5.89,1.89,6-2.54,11.52-8.26,11.52h0v17.41s0,0,0,0h0c3.73,0,7.14,2.33,8.26,5.89,1.89,6-2.54,11.52-8.26,11.52h0v17.41s0,0,0,0h0c3.73,0,7.14,2.33,8.26,5.89,1.89,6-2.54,11.52-8.26,11.52h0v17.41s0,0,0,0h0c3.73,0,7.14,2.33,8.26,5.89,1.89,6-2.54,11.52-8.26,11.52h0v17.41s0,0,0,0h0c3.73,0,7.14,2.33,8.26,5.89,1.89,6-2.54,11.52-8.26,11.52h0v17.41s0,0,0,0h0c3.73,0,7.14,2.33,8.26,5.89,1.89,6-2.54,11.52-8.26,11.52h0v17.41s0,0,0,0h0c3.73,0,7.14,2.33,8.26,5.89,1.89,6-2.54,11.52-8.26,11.52h0v17.41s0,0,0,0h25.91s0,0,0,0c0-4.81,3.9-8.7,8.7-8.7s8.7,3.9,8.7,8.7c0,0,0,0,0,0h17.41s0,0,0,0c0-4.81,3.9-8.7,8.7-8.7s8.7,3.9,8.7,8.7c0,0,0,0,0,0h17.41s0,0,0,0c0-4.81,3.9-8.7,8.7-8.7s8.7,3.9,8.7,8.7c0,0,0,0,0,0h17.41s0,0,0,0c0-4.81,3.9-8.7,8.7-8.7s8.7,3.9,8.7,8.7c0,0,0,0,0,0h17.41s0,0,0,0c0-4.81,3.9-8.7,8.7-8.7s8.7,3.9,8.7,8.7c0,0,0,0,0,0h17.41s0,0,0,0c0-4.81,3.9-8.7,8.7-8.7s8.7,3.9,8.7,8.7c0,0,0,0,0,0h17.41s0,0,0,0c0-4.81,3.9-8.7,8.7-8.7s8.7,3.9,8.7,8.7c0,0,0,0,0,0h17.41s0,0,0,0c0-4.81,3.9-8.7,8.7-8.7s8.7,3.9,8.7,8.7c0,0,0,0,0,0h17.41s0,0,0,0c0-4.81,3.9-8.7,8.7-8.7s8.7,3.9,8.7,8.7c0,0,0,0,0,0h17.41s0,0,0,0c0-4.81,3.9-8.7,8.7-8.7s8.7,3.9,8.7,8.7c0,0,0,0,0,0h25.91s0,0,0,0v-17.41s0,0,0,0c-4.81,0-8.7-3.9-8.7-8.7Z"/>
  </g>
</svg>