<?xml version="1.0" encoding="UTF-8"?>
<svg id="Layer_2" data-name="Layer 2" xmlns="http://www.w3.org/2000/svg" viewBox="0 0 14.85 34.92">
  <g id="Layer_1-2" data-name="Layer 1">
    <g>
      <path d="M10.98,27.54c-2.3,2.16-3.25,2.77-3.6,2.94,0-.02,0-.05,0-.08,0-.81.47-3.35,2.7-10.84,1.7-5.7,1.7-6.29,1.7-6.55,0-.62-.24-1.15-.7-1.53-.42-.35-1-.52-1.71-.52-1.13,0-2.43.42-3.97,1.29-1.48.83-3.12,2.24-4.88,4.18l-.51.57,2.23,1.72.44-.43c1.83-1.79,2.54-2.37,2.81-2.54.22-.14.4-.22.54-.26-.02.18-.07.39-.13.61-2.62,8.5-3.9,13.73-3.9,15.97,0,.85.24,1.54.72,2.06.49.53,1.15.79,1.95.79s1.8-.33,3.01-1.02c1.14-.65,2.87-2.08,5.29-4.36l.54-.51-2.02-1.97-.49.46Z"/>
      <path d="M14.13.74c-.48-.49-1.09-.74-1.82-.74-.89,0-1.66.35-2.3,1.04-.62.67-.93,1.5-.93,2.45,0,.77.24,1.41.71,1.91.47.5,1.1.76,1.8.76.86,0,1.63-.37,2.29-1.1.64-.71.97-1.54.97-2.48,0-.74-.24-1.36-.72-1.85Z"/>
    </g>
  </g>
</svg>